<mxfile host="Electron" modified="2024-06-08T11:43:26.298Z" agent="Mozilla/5.0 (X11; Linux x86_64) AppleWebKit/537.36 (KHTML, like Gecko) draw.io/24.5.1 Chrome/124.0.6367.207 Electron/30.0.6 Safari/537.36" etag="3YtmclfO-0br6mV0zFJZ" version="24.5.1" type="device">
  <diagram name="Page-1" id="PVsuTqZhpYsEY1nTIc1W">
    <mxGraphModel dx="2388" dy="2558" grid="1" gridSize="10" guides="1" tooltips="1" connect="1" arrows="1" fold="1" page="1" pageScale="1" pageWidth="850" pageHeight="1100" math="0" shadow="0">
      <root>
        <mxCell id="0" />
        <mxCell id="1" parent="0" />
        <mxCell id="plGNOie3y4qvpQvyyjeY-1" value="" style="rounded=0;whiteSpace=wrap;html=1;" vertex="1" parent="1">
          <mxGeometry x="40" y="760" width="760" height="190" as="geometry" />
        </mxCell>
        <mxCell id="plGNOie3y4qvpQvyyjeY-2" value="Инфраструктура" style="text;html=1;align=center;verticalAlign=middle;whiteSpace=wrap;rounded=0;" vertex="1" parent="1">
          <mxGeometry x="40" y="770" width="140" height="30" as="geometry" />
        </mxCell>
        <mxCell id="plGNOie3y4qvpQvyyjeY-4" value="Сервер базы данных&lt;br&gt;PostgreSQL&lt;div&gt;Порт 5434 TCP&lt;/div&gt;" style="rounded=0;whiteSpace=wrap;html=1;" vertex="1" parent="1">
          <mxGeometry x="345" y="830" width="160" height="100" as="geometry" />
        </mxCell>
        <mxCell id="plGNOie3y4qvpQvyyjeY-5" value="Управление базой данных&lt;div&gt;Adminer&lt;/div&gt;&lt;div&gt;Порт 9083 TCP&lt;/div&gt;" style="rounded=0;whiteSpace=wrap;html=1;" vertex="1" parent="1">
          <mxGeometry x="90" y="830" width="160" height="100" as="geometry" />
        </mxCell>
        <mxCell id="plGNOie3y4qvpQvyyjeY-6" value="" style="shape=flexArrow;endArrow=classic;startArrow=classic;html=1;rounded=0;exitX=1;exitY=0.5;exitDx=0;exitDy=0;" edge="1" parent="1" source="plGNOie3y4qvpQvyyjeY-5" target="plGNOie3y4qvpQvyyjeY-4">
          <mxGeometry width="100" height="100" relative="1" as="geometry">
            <mxPoint x="370" y="680" as="sourcePoint" />
            <mxPoint x="470" y="580" as="targetPoint" />
          </mxGeometry>
        </mxCell>
        <mxCell id="plGNOie3y4qvpQvyyjeY-7" value="" style="endArrow=classic;html=1;rounded=0;entryX=0.5;entryY=1;entryDx=0;entryDy=0;" edge="1" parent="1" target="plGNOie3y4qvpQvyyjeY-5">
          <mxGeometry width="50" height="50" relative="1" as="geometry">
            <mxPoint x="310" y="1080" as="sourcePoint" />
            <mxPoint x="450" y="610" as="targetPoint" />
          </mxGeometry>
        </mxCell>
        <mxCell id="plGNOie3y4qvpQvyyjeY-8" value="" style="endArrow=classic;html=1;rounded=0;entryX=0.5;entryY=1;entryDx=0;entryDy=0;" edge="1" parent="1" target="plGNOie3y4qvpQvyyjeY-4">
          <mxGeometry width="50" height="50" relative="1" as="geometry">
            <mxPoint x="310" y="1080" as="sourcePoint" />
            <mxPoint x="425" y="930" as="targetPoint" />
          </mxGeometry>
        </mxCell>
        <mxCell id="plGNOie3y4qvpQvyyjeY-9" value="Это docker-контейнеры" style="text;html=1;align=center;verticalAlign=middle;whiteSpace=wrap;rounded=0;" vertex="1" parent="1">
          <mxGeometry x="170" y="1080" width="280" height="30" as="geometry" />
        </mxCell>
        <mxCell id="plGNOie3y4qvpQvyyjeY-11" value="Папка с фотографиями (они в подпапках)&lt;div&gt;/opt/gallery/photos&lt;/div&gt;" style="rounded=0;whiteSpace=wrap;html=1;" vertex="1" parent="1">
          <mxGeometry x="600" y="830" width="160" height="100" as="geometry" />
        </mxCell>
        <mxCell id="plGNOie3y4qvpQvyyjeY-12" value="Я - фотография. Мой GUID&amp;nbsp;42d8e08d-6d00-49c6-a353-3d438276ca09&amp;nbsp;" style="rounded=0;whiteSpace=wrap;html=1;" vertex="1" parent="1">
          <mxGeometry x="880" y="760" width="460" height="60" as="geometry" />
        </mxCell>
        <mxCell id="plGNOie3y4qvpQvyyjeY-14" value="42" style="rounded=0;whiteSpace=wrap;html=1;" vertex="1" parent="1">
          <mxGeometry x="880" y="880" width="80" height="60" as="geometry" />
        </mxCell>
        <mxCell id="plGNOie3y4qvpQvyyjeY-15" value="d8" style="rounded=0;whiteSpace=wrap;html=1;" vertex="1" parent="1">
          <mxGeometry x="880" y="960" width="80" height="60" as="geometry" />
        </mxCell>
        <mxCell id="plGNOie3y4qvpQvyyjeY-16" value="e0" style="rounded=0;whiteSpace=wrap;html=1;" vertex="1" parent="1">
          <mxGeometry x="880" y="1040" width="80" height="60" as="geometry" />
        </mxCell>
        <mxCell id="plGNOie3y4qvpQvyyjeY-17" value="09.jpeg" style="rounded=0;whiteSpace=wrap;html=1;" vertex="1" parent="1">
          <mxGeometry x="880" y="1160" width="80" height="60" as="geometry" />
        </mxCell>
        <mxCell id="plGNOie3y4qvpQvyyjeY-18" value="" style="endArrow=classic;html=1;rounded=0;exitX=0.25;exitY=1;exitDx=0;exitDy=0;entryX=0.5;entryY=0;entryDx=0;entryDy=0;" edge="1" parent="1" source="plGNOie3y4qvpQvyyjeY-12" target="plGNOie3y4qvpQvyyjeY-14">
          <mxGeometry width="50" height="50" relative="1" as="geometry">
            <mxPoint x="400" y="660" as="sourcePoint" />
            <mxPoint x="450" y="610" as="targetPoint" />
          </mxGeometry>
        </mxCell>
        <mxCell id="plGNOie3y4qvpQvyyjeY-19" value="" style="endArrow=classic;html=1;rounded=0;exitX=0.5;exitY=1;exitDx=0;exitDy=0;entryX=0.5;entryY=0;entryDx=0;entryDy=0;" edge="1" parent="1" source="plGNOie3y4qvpQvyyjeY-14" target="plGNOie3y4qvpQvyyjeY-15">
          <mxGeometry width="50" height="50" relative="1" as="geometry">
            <mxPoint x="400" y="660" as="sourcePoint" />
            <mxPoint x="450" y="610" as="targetPoint" />
          </mxGeometry>
        </mxCell>
        <mxCell id="plGNOie3y4qvpQvyyjeY-21" value="" style="endArrow=classic;html=1;rounded=0;exitX=0.5;exitY=1;exitDx=0;exitDy=0;entryX=0.5;entryY=0;entryDx=0;entryDy=0;" edge="1" parent="1">
          <mxGeometry width="50" height="50" relative="1" as="geometry">
            <mxPoint x="921" y="1020" as="sourcePoint" />
            <mxPoint x="921" y="1040" as="targetPoint" />
          </mxGeometry>
        </mxCell>
        <mxCell id="plGNOie3y4qvpQvyyjeY-22" value="" style="endArrow=classic;html=1;rounded=0;exitX=0.5;exitY=1;exitDx=0;exitDy=0;entryX=0.5;entryY=0;entryDx=0;entryDy=0;" edge="1" parent="1" target="plGNOie3y4qvpQvyyjeY-17">
          <mxGeometry width="50" height="50" relative="1" as="geometry">
            <mxPoint x="921" y="1101" as="sourcePoint" />
            <mxPoint x="921" y="1121" as="targetPoint" />
          </mxGeometry>
        </mxCell>
        <mxCell id="plGNOie3y4qvpQvyyjeY-23" value="" style="endArrow=none;dashed=1;html=1;dashPattern=1 3;strokeWidth=2;rounded=0;entryX=0;entryY=0.5;entryDx=0;entryDy=0;" edge="1" parent="1" target="plGNOie3y4qvpQvyyjeY-12">
          <mxGeometry width="50" height="50" relative="1" as="geometry">
            <mxPoint x="760" y="860" as="sourcePoint" />
            <mxPoint x="810" y="810" as="targetPoint" />
          </mxGeometry>
        </mxCell>
        <mxCell id="plGNOie3y4qvpQvyyjeY-24" value="" style="endArrow=none;dashed=1;html=1;dashPattern=1 3;strokeWidth=2;rounded=0;exitX=1;exitY=0.75;exitDx=0;exitDy=0;entryX=0;entryY=0.5;entryDx=0;entryDy=0;" edge="1" parent="1" source="plGNOie3y4qvpQvyyjeY-11" target="plGNOie3y4qvpQvyyjeY-17">
          <mxGeometry width="50" height="50" relative="1" as="geometry">
            <mxPoint x="400" y="780" as="sourcePoint" />
            <mxPoint x="870" y="1180" as="targetPoint" />
          </mxGeometry>
        </mxCell>
        <mxCell id="plGNOie3y4qvpQvyyjeY-25" value="" style="rounded=0;whiteSpace=wrap;html=1;" vertex="1" parent="1">
          <mxGeometry x="40" y="160" width="760" height="440" as="geometry" />
        </mxCell>
        <mxCell id="plGNOie3y4qvpQvyyjeY-26" value="Бэкенд на ASP.NET Core WebAPI" style="text;html=1;align=center;verticalAlign=middle;whiteSpace=wrap;rounded=0;" vertex="1" parent="1">
          <mxGeometry x="60" y="180" width="220" height="30" as="geometry" />
        </mxCell>
        <mxCell id="plGNOie3y4qvpQvyyjeY-27" value="" style="shape=flexArrow;endArrow=classic;startArrow=classic;html=1;rounded=0;exitX=0.5;exitY=0;exitDx=0;exitDy=0;entryX=0.5;entryY=1;entryDx=0;entryDy=0;" edge="1" parent="1" source="plGNOie3y4qvpQvyyjeY-4" target="plGNOie3y4qvpQvyyjeY-28">
          <mxGeometry width="100" height="100" relative="1" as="geometry">
            <mxPoint x="490" y="670" as="sourcePoint" />
            <mxPoint x="590" y="570" as="targetPoint" />
          </mxGeometry>
        </mxCell>
        <mxCell id="plGNOie3y4qvpQvyyjeY-28" value="DAO" style="rounded=0;whiteSpace=wrap;html=1;dashed=1;" vertex="1" parent="1">
          <mxGeometry x="80" y="520" width="200" height="50" as="geometry" />
        </mxCell>
        <mxCell id="plGNOie3y4qvpQvyyjeY-29" value="PhotosStorageService" style="rounded=0;whiteSpace=wrap;html=1;dashed=1;" vertex="1" parent="1">
          <mxGeometry x="560" y="520" width="200" height="50" as="geometry" />
        </mxCell>
        <mxCell id="plGNOie3y4qvpQvyyjeY-30" value="" style="shape=flexArrow;endArrow=classic;startArrow=classic;html=1;rounded=0;entryX=0.5;entryY=1;entryDx=0;entryDy=0;exitX=0.5;exitY=0;exitDx=0;exitDy=0;" edge="1" parent="1" source="plGNOie3y4qvpQvyyjeY-11" target="plGNOie3y4qvpQvyyjeY-29">
          <mxGeometry width="100" height="100" relative="1" as="geometry">
            <mxPoint x="490" y="670" as="sourcePoint" />
            <mxPoint x="590" y="570" as="targetPoint" />
          </mxGeometry>
        </mxCell>
        <mxCell id="plGNOie3y4qvpQvyyjeY-31" value="" style="endArrow=classic;html=1;rounded=0;entryX=0.5;entryY=1;entryDx=0;entryDy=0;" edge="1" parent="1">
          <mxGeometry width="50" height="50" relative="1" as="geometry">
            <mxPoint x="570" y="1080" as="sourcePoint" />
            <mxPoint x="685" y="930" as="targetPoint" />
          </mxGeometry>
        </mxCell>
        <mxCell id="plGNOie3y4qvpQvyyjeY-32" value="Это в итоге станет Docker Volume" style="text;html=1;align=center;verticalAlign=middle;whiteSpace=wrap;rounded=0;" vertex="1" parent="1">
          <mxGeometry x="425" y="1080" width="280" height="30" as="geometry" />
        </mxCell>
        <mxCell id="plGNOie3y4qvpQvyyjeY-33" value="Сервис пережатия фотографий" style="rounded=0;whiteSpace=wrap;html=1;dashed=1;" vertex="1" parent="1">
          <mxGeometry x="560" y="430" width="200" height="50" as="geometry" />
        </mxCell>
        <mxCell id="plGNOie3y4qvpQvyyjeY-34" value="" style="endArrow=classic;html=1;rounded=0;entryX=1;entryY=0.5;entryDx=0;entryDy=0;" edge="1" parent="1" target="plGNOie3y4qvpQvyyjeY-33">
          <mxGeometry width="50" height="50" relative="1" as="geometry">
            <mxPoint x="880" y="455" as="sourcePoint" />
            <mxPoint x="1060" y="500" as="targetPoint" />
          </mxGeometry>
        </mxCell>
        <mxCell id="plGNOie3y4qvpQvyyjeY-35" value="Фотографии будут в разном разрешении, из одной большой фотки, что залил пользотватель, надо будет сделать набор фоток разных разрешений.(4к монитор и экран телефона)" style="rounded=0;whiteSpace=wrap;html=1;" vertex="1" parent="1">
          <mxGeometry x="880" y="425" width="360" height="175" as="geometry" />
        </mxCell>
        <mxCell id="plGNOie3y4qvpQvyyjeY-37" value="Контроллеры" style="rounded=0;whiteSpace=wrap;html=1;dashed=1;" vertex="1" parent="1">
          <mxGeometry x="80" y="230" width="680" height="50" as="geometry" />
        </mxCell>
        <mxCell id="plGNOie3y4qvpQvyyjeY-39" value="" style="rounded=0;whiteSpace=wrap;html=1;" vertex="1" parent="1">
          <mxGeometry x="40" y="-290" width="760" height="410" as="geometry" />
        </mxCell>
        <mxCell id="plGNOie3y4qvpQvyyjeY-40" value="Фронтенд на VueJS" style="text;html=1;align=center;verticalAlign=middle;whiteSpace=wrap;rounded=0;" vertex="1" parent="1">
          <mxGeometry x="60" y="-270" width="160" height="30" as="geometry" />
        </mxCell>
        <mxCell id="plGNOie3y4qvpQvyyjeY-41" value="Библиотека запросов (GET, POST и т.п., передача токена на бекенд и т.п.)" style="rounded=0;whiteSpace=wrap;html=1;dashed=1;" vertex="1" parent="1">
          <mxGeometry x="80" width="680" height="60" as="geometry" />
        </mxCell>
        <mxCell id="plGNOie3y4qvpQvyyjeY-42" value="" style="shape=flexArrow;endArrow=classic;startArrow=classic;html=1;rounded=0;entryX=0.5;entryY=0;entryDx=0;entryDy=0;exitX=0.5;exitY=1;exitDx=0;exitDy=0;" edge="1" parent="1" source="plGNOie3y4qvpQvyyjeY-41" target="plGNOie3y4qvpQvyyjeY-37">
          <mxGeometry width="100" height="100" relative="1" as="geometry">
            <mxPoint x="490" y="20" as="sourcePoint" />
            <mxPoint x="590" y="-80" as="targetPoint" />
          </mxGeometry>
        </mxCell>
        <mxCell id="plGNOie3y4qvpQvyyjeY-43" value="Vue-компоненты" style="rounded=0;whiteSpace=wrap;html=1;dashed=1;" vertex="1" parent="1">
          <mxGeometry x="80" y="-100" width="680" height="60" as="geometry" />
        </mxCell>
        <mxCell id="plGNOie3y4qvpQvyyjeY-44" value="Vue-view (несколько штук)" style="rounded=0;whiteSpace=wrap;html=1;dashed=1;" vertex="1" parent="1">
          <mxGeometry x="80" y="-220" width="680" height="60" as="geometry" />
        </mxCell>
        <mxCell id="plGNOie3y4qvpQvyyjeY-45" value="Главная страница" style="rounded=0;whiteSpace=wrap;html=1;" vertex="1" parent="1">
          <mxGeometry x="960" y="-320" width="160" height="60" as="geometry" />
        </mxCell>
        <mxCell id="plGNOie3y4qvpQvyyjeY-46" value="Альбомы" style="rounded=0;whiteSpace=wrap;html=1;" vertex="1" parent="1">
          <mxGeometry x="880" y="-200" width="160" height="60" as="geometry" />
        </mxCell>
        <mxCell id="plGNOie3y4qvpQvyyjeY-47" value="Админка (массовая заливка фоток, просмотр статистики и т.п.)" style="rounded=0;whiteSpace=wrap;html=1;" vertex="1" parent="1">
          <mxGeometry x="1120" y="-200" width="200" height="60" as="geometry" />
        </mxCell>
        <mxCell id="plGNOie3y4qvpQvyyjeY-49" value="Альбомы" style="rounded=0;whiteSpace=wrap;html=1;" vertex="1" parent="1">
          <mxGeometry x="880" y="-80" width="160" height="60" as="geometry" />
        </mxCell>
        <mxCell id="plGNOie3y4qvpQvyyjeY-50" value="Альбомы" style="rounded=0;whiteSpace=wrap;html=1;" vertex="1" parent="1">
          <mxGeometry x="1080" y="-80" width="160" height="60" as="geometry" />
        </mxCell>
        <mxCell id="plGNOie3y4qvpQvyyjeY-51" value="" style="endArrow=classic;html=1;rounded=0;exitX=0.5;exitY=1;exitDx=0;exitDy=0;entryX=0.5;entryY=0;entryDx=0;entryDy=0;" edge="1" parent="1" source="plGNOie3y4qvpQvyyjeY-45" target="plGNOie3y4qvpQvyyjeY-46">
          <mxGeometry width="50" height="50" relative="1" as="geometry">
            <mxPoint x="1060" y="-220" as="sourcePoint" />
            <mxPoint x="1110" y="-270" as="targetPoint" />
          </mxGeometry>
        </mxCell>
        <mxCell id="plGNOie3y4qvpQvyyjeY-52" value="" style="endArrow=classic;html=1;rounded=0;entryX=0.5;entryY=0;entryDx=0;entryDy=0;" edge="1" parent="1" source="plGNOie3y4qvpQvyyjeY-45" target="plGNOie3y4qvpQvyyjeY-47">
          <mxGeometry width="50" height="50" relative="1" as="geometry">
            <mxPoint x="1050" y="-250" as="sourcePoint" />
            <mxPoint x="970" y="-190" as="targetPoint" />
          </mxGeometry>
        </mxCell>
        <mxCell id="plGNOie3y4qvpQvyyjeY-53" value="" style="endArrow=classic;html=1;rounded=0;exitX=0.5;exitY=1;exitDx=0;exitDy=0;entryX=0.5;entryY=0;entryDx=0;entryDy=0;" edge="1" parent="1" target="plGNOie3y4qvpQvyyjeY-49">
          <mxGeometry width="50" height="50" relative="1" as="geometry">
            <mxPoint x="960" y="-140" as="sourcePoint" />
            <mxPoint x="880" y="-80" as="targetPoint" />
          </mxGeometry>
        </mxCell>
        <mxCell id="plGNOie3y4qvpQvyyjeY-54" value="" style="endArrow=classic;html=1;rounded=0;exitX=0.5;exitY=1;exitDx=0;exitDy=0;entryX=0.5;entryY=0;entryDx=0;entryDy=0;" edge="1" parent="1" source="plGNOie3y4qvpQvyyjeY-46" target="plGNOie3y4qvpQvyyjeY-50">
          <mxGeometry width="50" height="50" relative="1" as="geometry">
            <mxPoint x="1060" y="-240" as="sourcePoint" />
            <mxPoint x="980" y="-180" as="targetPoint" />
          </mxGeometry>
        </mxCell>
        <mxCell id="plGNOie3y4qvpQvyyjeY-55" value="Фотография 1" style="rounded=0;whiteSpace=wrap;html=1;" vertex="1" parent="1">
          <mxGeometry x="880" y="40" width="160" height="60" as="geometry" />
        </mxCell>
        <mxCell id="plGNOie3y4qvpQvyyjeY-56" value="Фотография 2" style="rounded=0;whiteSpace=wrap;html=1;" vertex="1" parent="1">
          <mxGeometry x="1080" y="40" width="160" height="60" as="geometry" />
        </mxCell>
        <mxCell id="plGNOie3y4qvpQvyyjeY-57" value="Фотография 3" style="rounded=0;whiteSpace=wrap;html=1;" vertex="1" parent="1">
          <mxGeometry x="1280" y="40" width="160" height="60" as="geometry" />
        </mxCell>
        <mxCell id="plGNOie3y4qvpQvyyjeY-58" value="" style="endArrow=classic;html=1;rounded=0;exitX=0.5;exitY=1;exitDx=0;exitDy=0;" edge="1" parent="1" source="plGNOie3y4qvpQvyyjeY-49" target="plGNOie3y4qvpQvyyjeY-55">
          <mxGeometry width="50" height="50" relative="1" as="geometry">
            <mxPoint x="990" y="200" as="sourcePoint" />
            <mxPoint x="1040" y="150" as="targetPoint" />
          </mxGeometry>
        </mxCell>
        <mxCell id="plGNOie3y4qvpQvyyjeY-59" value="" style="endArrow=classic;html=1;rounded=0;exitX=0.5;exitY=1;exitDx=0;exitDy=0;entryX=0.5;entryY=0;entryDx=0;entryDy=0;" edge="1" parent="1" source="plGNOie3y4qvpQvyyjeY-49" target="plGNOie3y4qvpQvyyjeY-56">
          <mxGeometry width="50" height="50" relative="1" as="geometry">
            <mxPoint x="970" y="-10" as="sourcePoint" />
            <mxPoint x="970" y="50" as="targetPoint" />
          </mxGeometry>
        </mxCell>
        <mxCell id="plGNOie3y4qvpQvyyjeY-60" value="" style="endArrow=classic;html=1;rounded=0;exitX=0.5;exitY=1;exitDx=0;exitDy=0;entryX=0.5;entryY=0;entryDx=0;entryDy=0;" edge="1" parent="1" source="plGNOie3y4qvpQvyyjeY-49" target="plGNOie3y4qvpQvyyjeY-57">
          <mxGeometry width="50" height="50" relative="1" as="geometry">
            <mxPoint x="980" as="sourcePoint" />
            <mxPoint x="980" y="60" as="targetPoint" />
          </mxGeometry>
        </mxCell>
        <mxCell id="plGNOie3y4qvpQvyyjeY-61" value="Фотография 1 в разрешении 512 на 512" style="rounded=0;whiteSpace=wrap;html=1;" vertex="1" parent="1">
          <mxGeometry x="920" y="120" width="160" height="60" as="geometry" />
        </mxCell>
        <mxCell id="plGNOie3y4qvpQvyyjeY-62" value="Фотография 1 в разрешении 1024 на 1024" style="rounded=0;whiteSpace=wrap;html=1;" vertex="1" parent="1">
          <mxGeometry x="920" y="200" width="160" height="60" as="geometry" />
        </mxCell>
        <mxCell id="plGNOie3y4qvpQvyyjeY-63" value="Фотография 1 в оригинальном разрешении" style="rounded=0;whiteSpace=wrap;html=1;" vertex="1" parent="1">
          <mxGeometry x="920" y="280" width="160" height="60" as="geometry" />
        </mxCell>
        <mxCell id="plGNOie3y4qvpQvyyjeY-65" value="" style="endArrow=classic;html=1;rounded=0;exitX=0;exitY=1;exitDx=0;exitDy=0;entryX=0;entryY=0.5;entryDx=0;entryDy=0;" edge="1" parent="1" source="plGNOie3y4qvpQvyyjeY-55" target="plGNOie3y4qvpQvyyjeY-61">
          <mxGeometry width="50" height="50" relative="1" as="geometry">
            <mxPoint x="520" as="sourcePoint" />
            <mxPoint x="880" y="310" as="targetPoint" />
            <Array as="points">
              <mxPoint x="880" y="150" />
            </Array>
          </mxGeometry>
        </mxCell>
        <mxCell id="plGNOie3y4qvpQvyyjeY-66" value="" style="endArrow=classic;html=1;rounded=0;exitX=0;exitY=1;exitDx=0;exitDy=0;entryX=0;entryY=0.5;entryDx=0;entryDy=0;" edge="1" parent="1" target="plGNOie3y4qvpQvyyjeY-62">
          <mxGeometry width="50" height="50" relative="1" as="geometry">
            <mxPoint x="880" y="150" as="sourcePoint" />
            <mxPoint x="920" y="200" as="targetPoint" />
            <Array as="points">
              <mxPoint x="880" y="230" />
            </Array>
          </mxGeometry>
        </mxCell>
        <mxCell id="plGNOie3y4qvpQvyyjeY-67" value="" style="endArrow=classic;html=1;rounded=0;exitX=0;exitY=1;exitDx=0;exitDy=0;entryX=0;entryY=0.5;entryDx=0;entryDy=0;" edge="1" parent="1">
          <mxGeometry width="50" height="50" relative="1" as="geometry">
            <mxPoint x="880" y="230" as="sourcePoint" />
            <mxPoint x="920" y="310" as="targetPoint" />
            <Array as="points">
              <mxPoint x="880" y="310" />
            </Array>
          </mxGeometry>
        </mxCell>
      </root>
    </mxGraphModel>
  </diagram>
</mxfile>
